<svg width="32" height="32" viewBox="0 0 32 32" fill="none" xmlns="http://www.w3.org/2000/svg">
<path d="M25.8189 15.1383L17.2676 9.18408C17.2676 9.18408 13.8021 6.54715 9.81562 7.06816L9.56706 7.10321C6.87914 7.52863 4.79667 9.66845 4.31868 12.3468C4.10518 13.5566 3.99854 14.7829 4.00002 16.0114V18.2421C4.00001 18.7145 4.09308 19.1822 4.27391 19.6186C4.45473 20.055 4.71976 20.4515 5.05385 20.7855C5.38795 21.1194 5.78457 21.3843 6.22106 21.5649C6.65754 21.7455 7.12534 21.8384 7.59772 21.8382H28.3586V20.0075C28.3587 19.0513 28.1278 18.1093 27.6856 17.2616C27.2434 16.4138 26.603 15.6854 25.8189 15.1383ZM24.2017 16.0242L25.086 16.6137C25.3051 16.7592 25.4849 16.9567 25.6092 17.1886C25.7334 17.4204 25.7984 17.6795 25.7982 17.9425V18.7089L24.2048 17.8533L24.2017 16.0242ZM23.3843 17.4151L20.9704 16.1214V13.8748L23.3843 15.4809V17.4151ZM6.52223 19.6203H6.00281C5.74673 19.6203 5.50114 19.5186 5.32007 19.3375C5.13899 19.1564 5.03726 18.9108 5.03726 18.6547C5.03726 18.3987 5.13899 18.1531 5.32007 17.972C5.50114 17.7909 5.74673 17.6892 6.00281 17.6892H6.52223C6.77831 17.6892 7.0239 17.7909 7.20498 17.972C7.38605 18.1531 7.48778 18.3987 7.48778 18.6547C7.48778 18.9108 7.38605 19.1564 7.20498 19.3375C7.0239 19.5186 6.77831 19.6203 6.52223 19.6203ZM12.8365 19.6203H12.3155C12.0594 19.6203 11.8139 19.5186 11.6328 19.3375C11.4517 19.1564 11.35 18.9108 11.35 18.6547C11.35 18.3987 11.4517 18.1531 11.6328 17.972C11.8139 17.7909 12.0594 17.6892 12.3155 17.6892H12.8365C13.0926 17.6892 13.3382 17.7909 13.5193 17.972C13.7004 18.1531 13.8021 18.3987 13.8021 18.6547C13.8021 18.9108 13.7004 19.1564 13.5193 19.3375C13.3382 19.5186 13.0926 19.6203 12.8365 19.6203ZM14.4076 12.291C14.3846 12.5224 14.2765 12.7369 14.1043 12.8929C13.932 13.049 13.7079 13.1355 13.4755 13.1355H6.48399C6.34819 13.1354 6.21403 13.1059 6.0908 13.0488C5.96757 12.9917 5.85821 12.9086 5.77031 12.8051C5.68241 12.7016 5.61806 12.5802 5.58172 12.4493C5.54539 12.3185 5.53793 12.1813 5.55987 12.0473L5.61564 11.7127C5.68141 11.3128 5.8454 10.9355 6.09289 10.6146C6.34038 10.2937 6.66364 10.0392 7.03369 9.87399L7.09264 9.8469C8.83756 9.06652 10.8194 9.00357 12.6103 9.67164L12.8238 9.7513C13.3308 9.94033 13.7611 10.2918 14.0476 10.7509C14.3341 11.21 14.4606 11.7509 14.4076 12.2895V12.291ZM17.2755 11.4147L20.1594 13.3267V15.6784L17.2755 14.1329V11.4147Z" fill="#E66C00"/>
<path d="M28.3598 23.7169H6.89941V24.4116H28.3598V23.7169Z" fill="#E66C00"/>
</svg>
