<svg width="32" height="32" viewBox="0 0 32 32" fill="none" xmlns="http://www.w3.org/2000/svg">
<path d="M17.8144 9.0332H7.1377V27.2068H26.63V25.0708H17.8144V9.0332Z" fill="#E66C00"/>
<path d="M18.8765 7.62113L18.2388 6.7031C17.8734 6.17727 17.3861 5.74771 16.8186 5.45113C16.2511 5.15455 15.6202 4.99977 14.9799 5H9.97298C9.33271 5.00007 8.70195 5.15499 8.13449 5.45154C7.56703 5.74809 7.07971 6.17749 6.71409 6.7031L6.07632 7.62113C6.03143 7.68599 6.00527 7.76196 6.00072 7.84071C5.99616 7.91947 6.01339 7.99795 6.05051 8.06755C6.08764 8.13716 6.14321 8.19519 6.21115 8.23528C6.27909 8.27537 6.35675 8.29597 6.43563 8.29482H18.5316C18.6093 8.29336 18.6851 8.27086 18.7509 8.22972C18.8168 8.18858 18.8703 8.13034 18.9057 8.06121C18.9411 7.99208 18.9571 7.91464 18.952 7.83714C18.9468 7.75964 18.9208 7.68498 18.8765 7.62113Z" fill="#E66C00"/>
<path d="M26.5536 16.1546L25.9122 15.2365C25.5466 14.7109 25.0593 14.2815 24.4918 13.985C23.9243 13.6884 23.2936 13.5335 22.6533 13.5334H17.6482C17.0079 13.5332 16.377 13.688 15.8095 13.9846C15.242 14.2812 14.7547 14.7107 14.3893 15.2365L13.7515 16.1546C13.7065 16.2193 13.6802 16.2952 13.6755 16.3739C13.6709 16.4526 13.6881 16.5311 13.7253 16.6006C13.7625 16.6701 13.8182 16.728 13.8862 16.7679C13.9543 16.8078 14.032 16.828 14.1109 16.8265H26.2068C26.2846 16.8257 26.3607 16.8038 26.4269 16.763C26.4931 16.7222 26.547 16.6641 26.5827 16.595C26.6183 16.5259 26.6345 16.4483 26.6293 16.3707C26.6242 16.2931 26.598 16.2184 26.5536 16.1546Z" fill="#E66C00"/>
<path d="M12.2921 17.2828C13.9808 17.2828 15.3497 15.9139 15.3497 14.2252C15.3497 12.5365 13.9808 11.1675 12.2921 11.1675C10.6033 11.1675 9.23438 12.5365 9.23438 14.2252C9.23438 15.9139 10.6033 17.2828 12.2921 17.2828Z" fill="#253162"/>
<path d="M12.5688 13.776V12.7359C12.569 12.6994 12.5621 12.6632 12.5483 12.6294C12.5345 12.5957 12.5141 12.5649 12.4884 12.5391C12.4627 12.5132 12.4321 12.4926 12.3984 12.4786C12.3647 12.4646 12.3286 12.4574 12.2921 12.4574C12.2183 12.4574 12.1475 12.4867 12.0952 12.539C12.043 12.5912 12.0137 12.662 12.0137 12.7359V14.3312C12.0137 14.405 12.043 14.4759 12.0952 14.5281C12.1475 14.5803 12.2183 14.6096 12.2921 14.6096H14.1659C14.2398 14.6096 14.3106 14.5803 14.3628 14.5281C14.415 14.4759 14.4444 14.405 14.4444 14.3312C14.4439 14.2576 14.4143 14.1873 14.3622 14.1354C14.31 14.0836 14.2394 14.0545 14.1659 14.0545H12.8473C12.7736 14.054 12.703 14.0245 12.6509 13.9724C12.5988 13.9203 12.5693 13.8498 12.5688 13.776Z" fill="#E66C00"/>
<path d="M22.8739 19.6866C23.1656 19.6866 23.4021 19.4501 23.4021 19.1584C23.4021 18.8667 23.1656 18.6302 22.8739 18.6302C22.5822 18.6302 22.3457 18.8667 22.3457 19.1584C22.3457 19.4501 22.5822 19.6866 22.8739 19.6866Z" fill="#E66C00"/>
<path d="M22.9851 19.6866H22.7605C22.3011 19.6866 21.9287 20.0591 21.9287 20.5184V22.112C21.9287 22.5713 22.3011 22.9437 22.7605 22.9437H22.9851C23.4445 22.9437 23.8169 22.5713 23.8169 22.112V20.5184C23.8169 20.0591 23.4445 19.6866 22.9851 19.6866Z" fill="#E66C00"/>
<path d="M23.2436 22.9778C23.2436 22.7685 23.0743 22.5988 22.8655 22.5988C22.6566 22.5988 22.4873 22.7685 22.4873 22.9778V24.8336C22.4873 25.043 22.6566 25.2127 22.8655 25.2127C23.0743 25.2127 23.2436 25.043 23.2436 24.8336V22.9778Z" fill="#E66C00"/>
</svg>
