<svg width="32" height="32" viewBox="0 0 32 32" fill="none" xmlns="http://www.w3.org/2000/svg">
<path d="M15.6991 26.2642H24.8798L23.7232 25.0011H7.70934L6.55273 26.2642H15.6991Z" fill="#E66C00"/>
<path d="M15.7333 23.5468H22.6423L21.4838 22.2837H9.94845L8.79004 23.5468H15.7333Z" fill="#E66C00"/>
<path d="M15.7333 21.0081H20.6286L19.4719 19.745H11.9603L10.8037 21.0081H15.7333Z" fill="#E66C00"/>
<path d="M8.79197 26.6034H6.55273V27.2241H8.79197V26.6034Z" fill="#E66C00"/>
<path d="M11.0293 23.9131H8.79004V24.5338H11.0293V23.9131Z" fill="#E66C00"/>
<path d="M13.0625 21.2499H10.8232V21.8706H13.0625V21.2499Z" fill="#E66C00"/>
<path d="M20.6504 21.2499H18.4111V21.8706H20.6504V21.2499Z" fill="#E66C00"/>
<path d="M22.6426 23.9131H20.4033V24.5338H22.6426V23.9131Z" fill="#E66C00"/>
<path d="M24.8818 26.6034H22.6426V27.2241H24.8818V26.6034Z" fill="#E66C00"/>
<path d="M5 26V13.7446C4.99992 12.231 5.42353 10.7467 6.22431 9.45456C7.02509 8.16243 8.17208 7.1125 9.53935 6.42002C11.3832 5.48681 13.4267 5 15.5 5C17.5733 5 19.6168 5.48681 21.4607 6.42002C22.8279 7.1125 23.9749 8.16243 24.7757 9.45456C25.5765 10.7467 26.0001 12.231 26 13.7446V26L22.0207 22.0213V14.4047C22.021 13.4646 21.758 12.5426 21.2608 11.7399C20.7635 10.9372 20.0512 10.285 19.202 9.85472C18.057 9.27458 16.7878 8.97193 15.5 8.97193C14.2122 8.97193 12.943 9.27458 11.798 9.85472C10.9486 10.2849 10.236 10.9371 9.73843 11.7397C9.24088 12.5424 8.97758 13.4644 8.97745 14.4047V22.0213L5 26Z" fill="#E66C00"/>
</svg>
