<svg width="32" height="32" viewBox="0 0 32 32" fill="none" xmlns="http://www.w3.org/2000/svg">
<path d="M27.55 18.1706C27.4479 17.7115 27.1757 17.308 26.7881 17.0416L26.1941 16.6243L25.266 16.0805C25.7013 16.0505 26.1183 15.894 26.466 15.6303C26.944 15.2543 27.2646 14.7135 27.3648 14.1136C27.4651 13.5137 27.3378 12.898 27.008 12.387C26.2564 11.1991 25.1465 9.41726 24.885 8.85795C24.4694 7.99214 23.4997 7.09169 22.8625 7.12633C22.2252 7.16096 19.9343 7.67698 17.0598 6.59472C17.0598 6.59472 15.5585 5.78605 14.3723 6.52372C14.0987 6.69688 13.8165 6.85792 13.5342 7.01031C12.5656 6.30563 11.3862 5.95126 10.1896 6.0054C8.99296 6.05953 7.85034 6.51894 6.94931 7.3082C6.04828 8.09745 5.44241 9.16964 5.23118 10.3487C5.01996 11.5277 5.21593 12.7436 5.78693 13.7965L6.58867 13.1766C6.18602 12.3599 6.05418 11.4361 6.21232 10.5393C6.37045 9.64259 6.81032 8.81959 7.46804 8.18986C8.12577 7.56013 8.9671 7.15645 9.86988 7.03744C10.7727 6.91843 11.6899 7.09029 12.4883 7.52806C11.9889 7.76362 11.4719 7.95989 10.942 8.11508C10.942 8.11508 8.53155 8.84583 8.57311 9.69259C8.61467 10.5394 9.55667 10.3575 9.55667 10.3575C9.55667 10.3575 13.1931 10.2831 14.7515 10.103C16.31 9.9229 16.2684 9.85883 17.0892 10.6346C17.3715 10.903 17.9689 11.5246 18.7464 12.2571L18.7014 12.2294L18.7689 12.2779C20.1542 13.5766 22.0919 15.2113 23.8651 15.845L26.3603 17.6061C26.5509 17.7317 26.7012 17.9096 26.7934 18.1184C26.8855 18.3272 26.9155 18.5582 26.8798 18.7836C26.8259 19.0623 26.6979 19.3213 26.5093 19.5334C26.4188 19.667 26.3023 19.7809 26.1666 19.8683C26.0309 19.9556 25.879 20.0145 25.7199 20.0416C25.5609 20.0686 25.398 20.0631 25.2411 20.0255C25.0842 19.9878 24.9366 19.9188 24.8071 19.8226L21.7767 17.7013L20.9733 17.1403L20.6702 17.3671L20.7274 17.4087C21.7594 18.1314 22.7909 18.854 23.8218 19.5767C24.0263 19.7035 24.1854 19.8917 24.2765 20.1143C24.3677 20.337 24.3861 20.5828 24.3291 20.8165C24.2713 21.0101 24.1849 21.1939 24.0729 21.362C23.6677 22.0668 22.8486 22.2278 22.1369 21.7083C20.9594 20.8425 19.7455 20.0235 18.5473 19.1836C18.4797 19.1369 18.4295 19.1022 18.3862 19.078L18.0866 19.3031L18.1299 19.336L20.1074 20.7213C20.4538 20.9672 20.8157 21.2062 21.1585 21.4607C21.3391 21.5803 21.4819 21.7489 21.5702 21.9467C21.6585 22.1445 21.6887 22.3633 21.6573 22.5776C21.6373 22.772 21.5595 22.956 21.4338 23.1057C21.3082 23.2555 21.1405 23.364 20.9525 23.4174C20.7681 23.4798 20.5712 23.4959 20.3791 23.4642C20.187 23.4325 20.0057 23.354 19.8512 23.2356C18.9975 22.6278 18.1473 22.0287 17.2659 21.4157C17.3091 21.5681 17.3524 21.6893 17.3784 21.8157C17.3866 21.8638 17.4049 21.9097 17.432 21.9503C17.4592 21.9909 17.4946 22.0253 17.536 22.0512C17.9204 22.3127 18.2979 22.5828 18.6806 22.8495C18.8977 22.9983 19.0644 23.2097 19.1585 23.4555C19.2117 23.5798 19.2387 23.7137 19.2376 23.8489C19.2366 23.9841 19.2076 24.1176 19.1525 24.2411C19.0973 24.3645 19.0173 24.4752 18.9173 24.5662C18.8173 24.6572 18.6996 24.7265 18.5715 24.7698C18.3877 24.8331 18.1913 24.8504 17.9993 24.8202C17.8073 24.7901 17.6256 24.7133 17.4702 24.5967C17.162 24.3889 16.8624 24.1707 16.5559 23.9612C16.5178 23.9352 16.4485 23.9058 16.4208 23.9231C16.2303 24.0443 16.0468 24.1776 15.8459 24.3179C16.1576 24.5361 16.4416 24.7404 16.7325 24.9361C16.9422 25.0911 17.1633 25.23 17.394 25.3517C17.6207 25.468 17.8702 25.5335 18.1248 25.5435C18.3795 25.5534 18.6333 25.5077 18.8684 25.4094C19.1036 25.3111 19.3145 25.1627 19.4863 24.9744C19.6581 24.7862 19.7868 24.5627 19.8633 24.3196C19.8893 24.2348 19.9066 24.1464 19.9308 24.0547C20.1843 24.1461 20.4542 24.1827 20.7229 24.1621C20.9915 24.1416 21.2527 24.0642 21.4893 23.9352C21.7293 23.802 21.9342 23.6138 22.0872 23.3858C22.2401 23.1579 22.3367 22.8969 22.3689 22.6243C23.02 22.7975 23.6348 22.7421 24.1577 22.3109C24.4091 22.1162 24.6191 21.8734 24.7755 21.5966C24.9319 21.3198 25.0315 21.0146 25.0685 20.6988C25.3953 20.7709 25.7348 20.762 26.0573 20.6728C26.7205 20.4823 27.1101 19.9975 27.408 19.4208C27.6073 19.0357 27.6579 18.5906 27.55 18.1706Z" fill="#E66C00"/>
<path d="M12.1058 18.3091C12.1058 17.8814 12.0417 17.6996 11.7422 17.2805C11.6523 17.1449 11.5358 17.029 11.3998 16.9398C11.2638 16.8506 11.111 16.79 10.9509 16.7616C10.7907 16.7333 10.6264 16.7378 10.4681 16.7749C10.3097 16.812 10.1605 16.8809 10.0296 16.9775C9.83564 17.1108 9.64343 17.2476 9.45122 17.3827C8.79089 17.8444 8.13172 18.3062 7.4737 18.768C7.27866 18.8939 7.12525 19.0747 7.03281 19.2876C6.94036 19.5005 6.91301 19.7361 6.95421 19.9645C7.01144 20.2366 7.13856 20.489 7.32305 20.697C7.41256 20.8266 7.52687 20.9372 7.65938 21.0223C7.79189 21.1074 7.93997 21.1654 8.09505 21.193C8.25012 21.2205 8.40912 21.217 8.56284 21.1827C8.71656 21.1484 8.86195 21.084 8.9906 20.9931C9.86796 20.387 10.7413 19.7758 11.6105 19.1593C11.7533 19.0656 11.8723 18.94 11.9582 18.7925C12.0442 18.645 12.0947 18.4795 12.1058 18.3091Z" fill="#E66C00"/>
<path d="M14.585 20.0304C14.5354 19.7514 14.4123 19.4908 14.2283 19.2754C14.1392 19.1407 14.0237 19.0255 13.8889 18.9366C13.7541 18.8478 13.6027 18.7871 13.4438 18.7583C13.285 18.7295 13.1219 18.7332 12.9645 18.7691C12.8071 18.805 12.6585 18.8723 12.5278 18.9671C11.7555 19.5016 10.985 20.0407 10.2161 20.5845C10.0476 20.7014 9.91226 20.86 9.82333 21.0448C9.73441 21.2297 9.69493 21.4344 9.70875 21.639C9.68451 21.9854 9.92174 22.2884 10.1572 22.581C10.3403 22.8082 10.6017 22.9586 10.8901 23.0029C11.1785 23.0471 11.473 22.9818 11.7157 22.82C12.5238 22.2682 13.329 21.7054 14.1313 21.1317C14.3019 21.0085 14.4348 20.8402 14.5149 20.6456C14.5951 20.451 14.6193 20.238 14.585 20.0304Z" fill="#E66C00"/>
<path d="M8.31001 16.9031C8.25166 16.6372 8.12853 16.3897 7.95156 16.1828C7.86263 16.0497 7.74785 15.9358 7.61405 15.8479C7.48025 15.76 7.33015 15.6999 7.17267 15.6712C7.01518 15.6424 6.85353 15.6456 6.6973 15.6805C6.54107 15.7155 6.39346 15.7815 6.26323 15.8746C5.67275 16.2815 5.08746 16.6936 4.50217 17.1075C4.35125 17.2092 4.2269 17.3456 4.13953 17.5053C4.05216 17.665 4.00431 17.8433 4 18.0252C4 18.4045 4.08312 18.6071 4.39654 19.033C4.57453 19.2819 4.84168 19.4525 5.14232 19.5093C5.44297 19.566 5.75393 19.5046 6.01041 19.3378C6.63034 18.9205 7.24333 18.4945 7.84593 18.0512C8.02558 17.9248 8.16492 17.7492 8.24724 17.5456C8.32956 17.3419 8.35136 17.1189 8.31001 16.9031Z" fill="#E66C00"/>
<path d="M16.7185 22.1569C16.7081 21.9289 16.6371 21.7079 16.513 21.5165C16.3888 21.325 16.2159 21.1701 16.012 21.0677C15.8102 20.9531 15.5786 20.902 15.3473 20.9208C15.116 20.9396 14.8957 21.0276 14.715 21.1733C14.18 21.5508 13.6414 21.9214 13.1098 22.3006C12.9776 22.3929 12.8655 22.5111 12.7801 22.6479C12.6948 22.7846 12.6379 22.9373 12.613 23.0966C12.5881 23.2559 12.5956 23.4186 12.6352 23.5749C12.6747 23.7312 12.7455 23.8779 12.8432 24.0062C13.2553 24.5985 13.9722 24.7508 14.5453 24.3526C15.1185 23.9543 15.6709 23.5733 16.2267 23.1733C16.3866 23.058 16.5153 22.9047 16.6011 22.7273C16.687 22.5498 16.7273 22.3538 16.7185 22.1569Z" fill="#E66C00"/>
</svg>
