<svg width="16" height="16" viewBox="0 0 16 16" fill="none" xmlns="http://www.w3.org/2000/svg">
<path fill-rule="evenodd" clip-rule="evenodd" d="M1 8C1 4.13401 4.13401 1 8 1C11.866 1 15 4.13401 15 8C15 11.866 11.866 15 8 15C4.13401 15 1 11.866 1 8ZM8 1.66667C4.5022 1.66667 1.66667 4.5022 1.66667 8C1.66667 11.4978 4.5022 14.3333 8 14.3333C11.4978 14.3333 14.3333 11.4978 14.3333 8C14.3333 4.5022 11.4978 1.66667 8 1.66667Z" fill="#E66C00"/>
<path fill-rule="evenodd" clip-rule="evenodd" d="M1 7.99984C1 7.81574 1.14924 7.6665 1.33333 7.6665H14.6667C14.8508 7.6665 15 7.81574 15 7.99984C15 8.18393 14.8508 8.33317 14.6667 8.33317H1.33333C1.14924 8.33317 1 8.18393 1 7.99984Z" fill="#E66C00"/>
<path fill-rule="evenodd" clip-rule="evenodd" d="M6.71983 1.6282C7.07813 1.24932 7.51062 1 8 1C8.48938 1 8.92187 1.24932 9.28018 1.6282C9.63781 2.00637 9.94453 2.5357 10.1951 3.16216C10.697 4.41692 11 6.1275 11 8C11 9.8725 10.697 11.5831 10.1951 12.8378C9.94453 13.4643 9.63781 13.9936 9.28018 14.3718C8.92187 14.7507 8.48938 15 8 15C7.51062 15 7.07813 14.7507 6.71983 14.3718C6.36219 13.9936 6.05547 13.4643 5.80489 12.8378C5.30298 11.5831 5 9.8725 5 8C5 6.1275 5.30298 4.41692 5.80489 3.16216C6.05547 2.5357 6.36219 2.00637 6.71983 1.6282ZM6.42387 3.40975C5.96063 4.56785 5.66667 6.1906 5.66667 8C5.66667 9.8094 5.96063 11.4322 6.42387 12.5903C6.65586 13.1702 6.92376 13.6172 7.2042 13.9137C7.48396 14.2096 7.753 14.3333 8 14.3333C8.247 14.3333 8.51604 14.2096 8.79581 13.9137C9.07624 13.6172 9.34414 13.1702 9.57613 12.5903C10.0394 11.4322 10.3333 9.8094 10.3333 8C10.3333 6.1906 10.0394 4.56785 9.57613 3.40975C9.34414 2.82978 9.07624 2.3828 8.79581 2.08627C8.51604 1.79044 8.247 1.66667 8 1.66667C7.753 1.66667 7.48396 1.79044 7.2042 2.08627C6.92376 2.3828 6.65586 2.82978 6.42387 3.40975Z" fill="#E66C00"/>
<path fill-rule="evenodd" clip-rule="evenodd" d="M3.05076 3.14499C3.18093 3.01482 3.39199 3.01482 3.52216 3.14499C4.66864 4.29147 6.25151 5 8.00049 5C9.7495 5 11.3324 4.29147 12.4789 3.14499C12.609 3.01482 12.8201 3.01482 12.9503 3.14499C13.0804 3.27517 13.0804 3.48622 12.9503 3.6164C11.6839 4.88279 9.93341 5.66666 8.00049 5.66666C6.0676 5.66666 4.31714 4.88279 3.05076 3.6164C2.92058 3.48622 2.92058 3.27517 3.05076 3.14499Z" fill="#E66C00"/>
<path fill-rule="evenodd" clip-rule="evenodd" d="M3.05076 12.3838C4.31714 11.1174 6.0676 10.3335 8.00049 10.3335C9.93341 10.3335 11.6839 11.1174 12.9503 12.3838C13.0804 12.5139 13.0804 12.725 12.9503 12.8552C12.8201 12.9853 12.609 12.9853 12.4789 12.8552C11.3324 11.7087 9.7495 11.0002 8.00049 11.0002C6.25151 11.0002 4.66864 11.7087 3.52216 12.8552C3.39199 12.9853 3.18093 12.9853 3.05076 12.8552C2.92058 12.725 2.92058 12.5139 3.05076 12.3838Z" fill="#E66C00"/>
</svg>
