<svg width="32" height="32" viewBox="0 0 32 32" fill="none" xmlns="http://www.w3.org/2000/svg">
<path d="M23.9983 26.8172C23.9996 26.983 23.9352 27.1425 23.8191 27.2608C23.703 27.3791 23.5447 27.4466 23.379 27.4484H8.61932C8.45357 27.4466 8.29529 27.3791 8.17919 27.2608C8.0631 27.1425 7.99866 26.983 8.00002 26.8172V7.076C7.99866 6.91024 8.0631 6.75071 8.17919 6.63239C8.29529 6.51407 8.45357 6.44662 8.61932 6.44482H23.3807C23.5464 6.44662 23.7047 6.51407 23.8208 6.63239C23.9369 6.75071 24.0013 6.91024 24 7.076L23.9983 26.8172Z" fill="#E66C00"/>
<path d="M22.2881 7.81873H9.71045V26.0329H22.2881V7.81873Z" fill="white"/>
<path fill-rule="evenodd" clip-rule="evenodd" d="M11.2847 13.3202C11.2847 13.108 11.4567 12.9359 11.669 12.9359H20.3307C20.5429 12.9359 20.715 13.108 20.715 13.3202C20.715 13.5325 20.5429 13.7045 20.3307 13.7045H11.669C11.4567 13.7045 11.2847 13.5325 11.2847 13.3202Z" fill="#E66C00"/>
<path fill-rule="evenodd" clip-rule="evenodd" d="M11.2847 16.1053C11.2847 15.893 11.4567 15.7209 11.669 15.7209H20.3307C20.5429 15.7209 20.715 15.893 20.715 16.1053C20.715 16.3175 20.5429 16.4896 20.3307 16.4896H11.669C11.4567 16.4896 11.2847 16.3175 11.2847 16.1053Z" fill="#E66C00"/>
<path fill-rule="evenodd" clip-rule="evenodd" d="M11.2847 18.8921C11.2847 18.6799 11.4567 18.5078 11.669 18.5078H20.3307C20.5429 18.5078 20.715 18.6799 20.715 18.8921C20.715 19.1044 20.5429 19.2764 20.3307 19.2764H11.669C11.4567 19.2764 11.2847 19.1044 11.2847 18.8921Z" fill="#E66C00"/>
<path fill-rule="evenodd" clip-rule="evenodd" d="M11.2847 21.6784C11.2847 21.4661 11.4567 21.2941 11.669 21.2941H20.3307C20.5429 21.2941 20.715 21.4661 20.715 21.6784C20.715 21.8906 20.5429 22.0627 20.3307 22.0627H11.669C11.4567 22.0627 11.2847 21.8906 11.2847 21.6784Z" fill="#E66C00"/>
<path d="M18.2564 6.25844C18.2564 6.70509 18.1239 7.14172 17.8758 7.5131C17.6276 7.88447 17.2749 8.17393 16.8623 8.34485C16.4496 8.51578 15.9956 8.5605 15.5575 8.47337C15.1194 8.38623 14.717 8.17114 14.4012 7.85531C14.0854 7.53948 13.8703 7.13709 13.7831 6.69902C13.696 6.26095 13.7407 5.80687 13.9117 5.39422C14.0826 4.98157 14.372 4.62886 14.7434 4.38072C15.1148 4.13257 15.5514 4.00012 15.9981 4.00012C16.597 4.00012 17.1714 4.23805 17.5949 4.66157C18.0185 5.08509 18.2564 5.6595 18.2564 6.25844Z" fill="#E66C00"/>
<path d="M20.8211 7.38537C20.8211 8.08441 20.0864 8.65111 19.1804 8.65111H12.8194C11.9134 8.65111 11.1787 8.08441 11.1787 7.38537V6.99682C11.1787 6.29778 11.9134 5.73108 12.8194 5.73108H19.1804C20.0864 5.73108 20.8211 6.29778 20.8211 6.99682V7.38537Z" fill="#E66C00"/>
<path d="M16.6204 5.76625C16.6204 5.88941 16.5839 6.0098 16.5154 6.1122C16.447 6.2146 16.3498 6.29441 16.236 6.34154C16.1222 6.38867 15.997 6.401 15.8762 6.37698C15.7554 6.35295 15.6445 6.29364 15.5574 6.20656C15.4703 6.11947 15.411 6.00852 15.387 5.88773C15.3629 5.76694 15.3753 5.64174 15.4224 5.52796C15.4695 5.41417 15.5493 5.31692 15.6517 5.2485C15.7541 5.18008 15.8745 5.14356 15.9977 5.14356C16.0795 5.14333 16.1606 5.15929 16.2363 5.1905C16.3119 5.22171 16.3806 5.26757 16.4385 5.32544C16.4964 5.38331 16.5422 5.45204 16.5734 5.52769C16.6047 5.60334 16.6206 5.68441 16.6204 5.76625Z" fill="white"/>
</svg>
