<svg width="32" height="32" viewBox="0 0 32 32" fill="none" xmlns="http://www.w3.org/2000/svg">
<path fill-rule="evenodd" clip-rule="evenodd" d="M24.5601 16.2988C27.6179 16.2988 29.1913 18.9205 30.1504 21.8481L30.8492 24.1614C30.9817 24.5542 30.4998 24.9059 30.107 24.9059H24.2541C24.3471 24.7321 24.4029 24.5407 24.4178 24.3441C24.4328 24.1475 24.4066 23.95 24.3408 23.7641L23.5119 21.2315C23.0757 19.8339 22.5071 18.4363 21.685 17.2991C22.4935 16.6284 23.5167 16.2716 24.5669 16.2943L24.5601 16.2988ZM16.4349 15.3397C19.8443 15.3397 21.5913 18.2651 22.6007 21.5056L23.432 24.0838C23.5621 24.52 23.0392 24.915 22.5573 24.915H10.3215C9.8397 24.915 9.31674 24.52 9.4903 24.0838L10.2759 21.5056C11.3241 18.2742 13.0711 15.3397 16.4417 15.3397H16.4349ZM16.4349 8.00008C17.0803 7.99556 17.7125 8.18309 18.2511 8.53882C18.7897 8.89455 19.2103 9.40241 19.4595 9.99782C19.7087 10.5932 19.7752 11.2493 19.6506 11.8826C19.5259 12.5159 19.2158 13.0979 18.7595 13.5544C18.3033 14.011 17.7215 14.3216 17.0883 14.4467C16.4551 14.5718 15.799 14.5057 15.2034 14.257C14.6078 14.0082 14.0996 13.5879 13.7435 13.0496C13.3874 12.5112 13.1994 11.8792 13.2035 11.2337C13.2035 10.3765 13.5439 9.55436 14.1498 8.948C14.7557 8.34164 15.5776 8.00069 16.4349 8.00008ZM8.31194 16.2988C9.36337 16.2686 10.3892 16.6263 11.1939 17.3036C10.395 18.5176 9.77938 19.8426 9.36698 21.2361L8.53574 23.7686C8.47717 23.9577 8.4587 24.1569 8.48151 24.3535C8.50432 24.5501 8.5679 24.7398 8.66819 24.9105H2.80835C2.36989 24.9105 1.8949 24.5588 2.0205 24.166L2.76497 21.8527C3.67842 18.925 5.25414 16.3034 8.31194 16.3034V16.2988ZM8.31194 9.6169C9.09672 9.62522 9.847 9.94067 10.402 10.4956C10.9569 11.0506 11.2724 11.8009 11.2807 12.5856C11.2699 13.3659 10.9523 14.1104 10.3968 14.6583C9.84117 15.2062 9.09223 15.5133 8.31194 15.5133C7.53548 15.5133 6.79083 15.2048 6.24179 14.6558C5.69275 14.1067 5.38431 13.3621 5.38431 12.5856C5.38423 11.8053 5.69136 11.0564 6.23925 10.5008C6.78713 9.94524 7.53173 9.6277 8.31194 9.6169ZM24.5601 9.6169C25.3474 9.6169 26.1025 9.92968 26.6593 10.4864C27.216 11.0432 27.5288 11.7983 27.5288 12.5856C27.5247 13.167 27.3489 13.7341 27.0234 14.2158C26.6979 14.6974 26.2372 15.0721 25.6994 15.2927C25.1615 15.5133 24.5704 15.57 24.0005 15.4555C23.4305 15.3411 22.9071 15.0608 22.496 14.6497C22.0849 14.2386 21.8046 13.7152 21.6902 13.1452C21.5758 12.5753 21.6324 11.9842 21.853 11.4463C22.0736 10.9085 22.4483 10.4478 22.9299 10.1223C23.4116 9.79681 23.9788 9.62097 24.5601 9.6169Z" fill="#E66C00"/>
</svg>
