<svg width="32" height="32" viewBox="0 0 32 32" fill="none" xmlns="http://www.w3.org/2000/svg">
<path d="M15.6996 28.1067C13.5833 28.1067 11.5146 27.4792 9.75502 26.3034C7.99544 25.1276 6.62404 23.4565 5.81427 21.5012C5.0045 19.546 4.79273 17.3946 5.20574 15.319C5.61875 13.2434 6.63799 11.337 8.13455 9.84066C9.63112 8.34438 11.5378 7.32549 13.6134 6.91287C15.6891 6.50025 17.8405 6.71242 19.7956 7.52255C21.7506 8.33269 23.4215 9.70439 24.597 11.4642C25.7724 13.224 26.3996 15.2929 26.3992 17.4091C26.3961 20.2457 25.2677 22.9651 23.2618 24.9707C21.2558 26.9763 18.5362 28.1041 15.6996 28.1067ZM15.6996 7.92158C13.8232 7.92158 11.9888 8.47802 10.4286 9.52052C8.8684 10.563 7.65236 12.0448 6.93427 13.7784C6.21618 15.512 6.02829 17.4197 6.39437 19.2601C6.76045 21.1005 7.66405 22.791 8.99091 24.1178C10.3178 25.4447 12.0083 26.3483 13.8487 26.7144C15.6891 27.0804 17.5967 26.8926 19.3303 26.1745C21.064 25.4564 22.5457 24.2403 23.5882 22.6801C24.6307 21.1199 25.1872 19.2856 25.1872 17.4091C25.1845 14.8937 24.1841 12.482 22.4054 10.7033C20.6267 8.92464 18.2151 7.92421 15.6996 7.92158Z" fill="#E66C00"/>
<path d="M16.5655 4.26147H14.8359V6.83885H16.5655V4.26147Z" fill="#E66C00"/>
<path d="M16.8645 2.99976H14.5359C14.2391 2.99976 13.9985 3.24034 13.9985 3.53712V3.92323C13.9985 4.22001 14.2391 4.4606 14.5359 4.4606H16.8645C17.1613 4.4606 17.4019 4.22001 17.4019 3.92323V3.53712C17.4019 3.24034 17.1613 2.99976 16.8645 2.99976Z" fill="#E66C00"/>
<path d="M17.3831 6.1748H13.9619C13.7025 6.1748 13.4922 6.3851 13.4922 6.6445V6.82363C13.4922 7.08303 13.7025 7.29333 13.9619 7.29333H17.3831C17.6425 7.29333 17.8528 7.08303 17.8528 6.82363V6.6445C17.8528 6.3851 17.6425 6.1748 17.3831 6.1748Z" fill="#E66C00"/>
<path d="M8.42744 7.11746L7.27194 8.08738C7.04463 8.27818 7.01503 8.61714 7.20584 8.84445L7.48351 9.17524C7.67431 9.40256 8.01327 9.43215 8.24058 9.24135L9.39608 8.27143C9.62339 8.08062 9.65299 7.74167 9.46218 7.51435L9.18451 7.18356C8.9937 6.95624 8.65475 6.92665 8.42744 7.11746Z" fill="#E66C00"/>
<path d="M22.214 7.18425L21.9363 7.51505C21.7455 7.74236 21.7751 8.08131 22.0024 8.27212L23.1579 9.24204C23.3852 9.43285 23.7242 9.40325 23.915 9.17594L24.1926 8.84515C24.3835 8.61783 24.3539 8.27888 24.1265 8.08807L22.971 7.11815C22.7437 6.92734 22.4048 6.95694 22.214 7.18425Z" fill="#E66C00"/>
<path d="M15.869 17.3681V10.2609H15.6999C14.2851 10.2609 12.9022 10.6804 11.7259 11.4664C10.5496 12.2523 9.63276 13.3695 9.09137 14.6765C8.54997 15.9836 8.40832 17.4218 8.68432 18.8093C8.96032 20.1969 9.64158 21.4714 10.6419 22.4718C11.6423 23.4721 12.9168 24.1534 14.3044 24.4294C15.6919 24.7054 17.1301 24.5637 18.4372 24.0223C19.7442 23.4809 20.8614 22.5641 21.6473 21.3878C22.4333 20.2115 22.8528 18.8286 22.8528 17.4138C22.8528 17.3999 22.8528 17.386 22.8528 17.372L15.869 17.3681Z" fill="#E66C00"/>
</svg>
