<svg width="312" height="78" viewBox="0 0 312 78" fill="none" xmlns="http://www.w3.org/2000/svg">
<path d="M19.7238 43.5869C19.7238 46.1902 19.2263 48.0568 18.2314 49.1869C17.2364 50.3169 15.8597 50.882 14.1013 50.882C12.3387 50.882 10.9545 50.3169 9.94876 49.1869C8.94306 48.0568 8.43914 46.1902 8.43699 43.5869V27H0V43.8459C0 48.3596 1.23622 51.8481 3.70867 54.3115C6.18112 56.7749 9.6121 58.0044 14.0016 58C18.404 58 21.835 56.7705 24.2945 54.3115C26.7541 51.8524 27.9893 48.3639 28 43.8459V27H19.7238V43.5869Z" fill="#E66C00"/>
<path d="M62.3736 32.165C61.2509 30.4603 59.6502 29.1261 57.7725 28.3301C55.7887 27.4434 53.4278 27 50.69 27H37V57H45.4719V49.1553H50.69C53.43 49.1553 55.7908 48.7055 57.7725 47.8058C59.158 47.1431 60.3888 46.1957 61.3848 45.0254C62.3809 43.855 63.1199 42.4878 63.5538 41.0127C63.9878 39.5375 64.1069 37.9874 63.9036 36.4631C63.7003 34.9388 63.179 33.4743 62.3736 32.165ZM54.1376 41.3204C53.276 42.0949 51.9566 42.4811 50.1795 42.479H45.4719V33.6861H50.1795C51.948 33.6861 53.2673 34.0723 54.1376 34.8447C55.0078 35.617 55.4386 36.7023 55.43 38.1003C55.4365 39.4725 55.0057 40.5458 54.1376 41.3204Z" fill="#E66C00"/>
<path d="M80 33.7298H88.9145V57H97.1261V33.7298H106V27H80V33.7298Z" fill="white"/>
<path d="M132.128 57H141L134.668 47.5574C136.355 46.7712 137.794 45.5205 138.826 43.945C139.91 42.1996 140.459 40.1626 140.404 38.0954C140.459 36.002 139.911 33.9381 138.826 32.1619C137.727 30.459 136.161 29.126 134.324 28.33C132.387 27.4455 130.073 27.0022 127.383 27H114V56.9871H122.288V49.0327H126.803L132.128 57ZM130.769 34.8543C131.61 35.6248 132.031 36.7095 132.031 38.1084C132.031 39.5073 131.61 40.5833 130.769 41.3366C129.917 42.1071 128.625 42.4923 126.894 42.4923H122.288V33.7115H126.894C128.623 33.7029 129.915 34.0838 130.769 34.8543Z" fill="white"/>
<path d="M215.973 28.8441C213.453 27.6169 210.534 27.0022 207.214 27H193V57H207.214C210.534 57 213.453 56.3864 215.973 55.1591C218.394 54.0157 220.441 52.2091 221.874 49.9497C223.291 47.7084 224 45.059 224 42.0016C224 38.9442 223.291 36.2873 221.874 34.0309C220.435 31.782 218.39 29.9841 215.973 28.8441ZM214.355 46.4359C213.666 47.6552 212.627 48.6405 211.372 49.265C209.974 49.9367 208.438 50.2687 206.887 50.2339H201.513V33.7628H206.881C208.431 33.728 209.968 34.06 211.365 34.7317C212.615 35.3525 213.654 36.3291 214.348 37.5383C215.054 38.9142 215.422 40.438 215.422 41.9839C215.422 43.5297 215.054 45.0535 214.348 46.4294L214.355 46.4359Z" fill="white"/>
<path d="M239 27H230V57H239V27Z" fill="white"/>
<path d="M266.554 42.9882L253.101 27H246V57H254.449V41.0118L267.903 57H275V27H266.554V42.9882Z" fill="white"/>
<path d="M303.767 49.7906C303.472 49.9314 303.169 50.0553 302.861 50.1618C301.67 50.5861 300.417 50.8024 299.155 50.8013C297.969 50.8164 296.792 50.5993 295.686 50.1618C294.674 49.7623 293.755 49.1491 292.991 48.3623C292.23 47.5614 291.636 46.6109 291.247 45.5687C290.415 43.2467 290.415 40.6995 291.247 38.3775C291.64 37.344 292.233 36.4018 292.991 35.6071C293.758 34.8192 294.685 34.2118 295.706 33.8275C296.838 33.4044 298.037 33.1955 299.243 33.2112C300.617 33.1909 301.979 33.4842 303.228 34.0695C304.494 34.6965 305.628 35.5701 306.566 36.641L312 31.6271C310.51 29.7917 308.6 28.3579 306.44 27.4516C301.833 25.6208 296.739 25.5186 292.065 27.1633C290.09 27.8904 288.279 29.0176 286.742 30.4772C285.252 31.9107 284.064 33.6394 283.251 35.5574C281.583 39.6837 281.583 44.3155 283.251 48.4418C284.061 50.3554 285.241 52.083 286.719 53.5221C288.241 54.9802 290.038 56.1077 292 56.836C294.127 57.627 296.375 58.021 298.639 57.9991C300.9 57.9921 303.15 57.6573 305.319 57.005C307.463 56.3925 309.489 55.4107 311.308 54.102V41.3435H303.767V49.7906Z" fill="white"/>
<path d="M162.642 39.3786H162.645L163.782 35.1715L166 27H161.738L158.797 33.5631H153.507L150.901 39.3786H156.192L153.54 45.2945H148.03L145 52.0647H150.504L148.292 57H157.864L159.202 52.0647H159.208L161.042 45.2945H161.038L162.642 39.3786Z" fill="#E66C00"/>
<path d="M180.828 45.2945L178.223 39.3786L175.657 33.5631L172.757 27H168.557L170.314 33.5631H166.935L165.388 39.3786H171.864L173.443 45.2945H163.809L162 52.0647H175.252L176.573 57H186L183.822 52.0647L180.828 45.2945Z" fill="#E66C00"/>
<path d="M186.113 45H183L185.897 52H189L186.113 45Z" fill="#E66C00"/>
<path d="M183 39L180.234 33H177L179.773 39H183Z" fill="#E66C00"/>
</svg>
