<svg width="224" height="56" viewBox="0 0 224 56" fill="none" xmlns="http://www.w3.org/2000/svg">
<path d="M30.5835 29.0533C30.5835 30.5913 30.2829 31.694 29.6818 32.3617C29.0806 33.0293 28.2489 33.3631 27.1865 33.3631C26.1216 33.3631 25.2853 33.0293 24.6777 32.3617C24.0701 31.694 23.7656 30.5913 23.7643 29.0533V19.2539H18.667V29.2063C18.667 31.8729 19.4139 33.9339 20.9076 35.3892C22.4014 36.8446 24.4743 37.5709 27.1263 37.5684C29.7861 37.5684 31.8589 36.842 33.3449 35.3892C34.8309 33.9365 35.5772 31.8755 35.5837 29.2063V19.2539H30.5835V29.0533Z" fill="#E66C00"/>
<path d="M56.0728 22.3464C55.3985 21.3257 54.4371 20.5269 53.3093 20.0503C52.1178 19.5194 50.6998 19.2539 49.0555 19.2539H40.833V37.2162H45.9214V32.5192H49.0555C50.7011 32.5192 52.1191 32.2499 53.3093 31.7112C54.1415 31.3144 54.8807 30.7472 55.479 30.0465C56.0772 29.3457 56.5211 28.5271 56.7817 27.6439C57.0423 26.7606 57.1139 25.8325 56.9918 24.9198C56.8696 24.0072 56.5565 23.1304 56.0728 22.3464ZM51.1261 27.8281C50.6086 28.2919 49.8162 28.5231 48.7489 28.5218H45.9214V23.2571H48.7489C49.811 23.2571 50.6035 23.4884 51.1261 23.9508C51.6488 24.4133 51.9076 25.0631 51.9024 25.9001C51.9063 26.7217 51.6475 27.3644 51.1261 27.8281Z" fill="#E66C00"/>
<path d="M66.2666 23.2833H71.7468V37.2162H76.7947V23.2833H82.2499V19.2539H66.2666V23.2833Z" fill="#2C3D85"/>
<path d="M97.8068 37.2159H103.25L99.3651 31.5253C100.4 31.0515 101.283 30.2977 101.916 29.3482C102.581 28.2963 102.919 27.0687 102.884 25.823C102.918 24.5613 102.582 23.3175 101.916 22.2471C101.242 21.2208 100.281 20.4175 99.1541 19.9378C97.9655 19.4047 96.5459 19.1375 94.8953 19.1362H86.6836V37.2081H91.769V32.4144H94.5391L97.8068 37.2159ZM96.9724 23.8697C97.4886 24.334 97.7468 24.9877 97.7468 25.8307C97.7468 26.6738 97.4886 27.3223 96.9724 27.7763C96.4498 28.2406 95.6574 28.4728 94.5952 28.4728H91.769V23.181H94.5952C95.6561 23.1758 96.4485 23.4053 96.9724 23.8697Z" fill="#2C3D85"/>
<path d="M147.913 20.3581C146.406 19.6232 144.659 19.2552 142.672 19.2539H134.167V37.2162H142.672C144.659 37.2162 146.406 36.8488 147.913 36.114C149.363 35.4293 150.587 34.3477 151.445 32.9949C152.293 31.6529 152.717 30.0666 152.717 28.236C152.717 26.4054 152.293 24.8146 151.445 23.4636C150.584 22.1171 149.36 21.0406 147.913 20.3581ZM146.945 30.891C146.533 31.621 145.911 32.211 145.16 32.5849C144.324 32.9871 143.405 33.1859 142.477 33.165H139.261V23.3031H142.473C143.401 23.2823 144.32 23.4811 145.156 23.8832C145.905 24.2549 146.526 24.8396 146.942 25.5636C147.364 26.3875 147.584 27.2998 147.584 28.2254C147.584 29.151 147.364 30.0633 146.942 30.8871L146.945 30.891Z" fill="#2C3D85"/>
<path d="M161.466 19.2539H156.333V37.2162H161.466V19.2539Z" fill="#2C3D85"/>
<path d="M178.172 28.8267L170.216 19.2539H166.017V37.2162H171.013V27.6434L178.969 37.2162H183.167V19.2539H178.172V28.8267Z" fill="#2C3D85"/>
<path d="M200.286 32.7493C200.109 32.8319 199.928 32.9047 199.743 32.9672C199.03 33.2163 198.28 33.3432 197.524 33.3426C196.814 33.3515 196.109 33.224 195.447 32.9672C194.84 32.7327 194.29 32.3727 193.832 31.9109C193.376 31.4407 193.021 30.8828 192.788 30.271C192.29 28.9081 192.29 27.4128 192.788 26.0498C193.023 25.4431 193.378 24.89 193.832 24.4236C194.292 23.961 194.847 23.6045 195.458 23.379C196.136 23.1306 196.854 23.008 197.576 23.0172C198.4 23.0053 199.215 23.1774 199.963 23.521C200.722 23.889 201.401 24.4018 201.963 25.0305L205.217 22.0873C204.324 21.0099 203.181 20.1683 201.887 19.6363C199.128 18.5616 196.077 18.5016 193.278 19.467C192.095 19.8938 191.01 20.5555 190.09 21.4123C189.197 22.2538 188.486 23.2685 187.999 24.3944C187 26.8166 187 29.5354 187.999 31.9576C188.484 33.0808 189.191 34.095 190.076 34.9397C190.988 35.7956 192.064 36.4574 193.239 36.885C194.512 37.3493 195.859 37.5806 197.215 37.5677C198.569 37.5636 199.916 37.3671 201.216 36.9842C202.5 36.6246 203.713 36.0483 204.802 35.2801V27.7908H200.286V32.7493Z" fill="#2C3D85"/>
<path d="M115.972 26.6655H115.974L116.644 24.1465L117.95 19.2539H115.44L113.708 23.1835H110.593L109.058 26.6655H112.174L110.612 30.2076H107.367L105.583 34.2612H108.824L107.522 37.2162H113.159L113.946 34.2612H113.95L115.03 30.2076H115.028L115.972 26.6655Z" fill="#E66C00"/>
<path d="M126.524 30.2076L124.967 26.6655L123.432 23.1835L121.699 19.2539H119.187L120.238 23.1835H118.217L117.293 26.6655H121.165L122.109 30.2076H116.348L115.267 34.2612H123.19L123.98 37.2162H129.617L128.314 34.2612L126.524 30.2076Z" fill="#E66C00"/>
<path d="M129.742 30.1719H127.866L129.612 34.1635H131.483L129.742 30.1719Z" fill="#E66C00"/>
<path d="M127.983 26.5325L126.477 23.1279H124.717L126.227 26.5325H127.983Z" fill="#E66C00"/>
</svg>
